{
  "source": "C:\\Users\\Peter\\Desktop\\stuff\\MIUN\\quantitative_research\\video_compression\\videos\\BVI-HD\\BVI-HD_CDVL_videos\\ORIG\\PlasmaAveragePan_1920x1080_60fps.mp4",
  "output": "C:\\Users\\Peter\\Desktop\\stuff\\MIUN\\quantitative_research\\video_compression\\compressed_videos\\BVI-HD\\h264\\8\\PlasmaAveragePan_1920x1080_60fps_h264.mp4",
  "codec": "h264",
  "ok": "Input #0, mov,mp4,m4a,3gp,3g2,mj2, from 'C:\\Users\\Peter\\Desktop\\stuff\\MIUN\\quantitative_research\\video_compression\\videos\\BVI-HD\\BVI-HD_CDVL_videos\\ORIG\\PlasmaAveragePan_1920x1080_60fps.mp4':\n  Metadata:\n    major_brand     : isom\n    minor_version   : 512\n    compatible_brands: isomiso2avc1mp41\n    encoder         : Lavf54.28.101\n  Duration: 00:00:05.00, start: 0.000000, bitrate: 73730 kb/s\n  Stream #0:0[0x1](und): Video: h264 (High 4:4:4 Predictive) (avc1 / 0x31637661), yuv420p(progressive), 1920x1080, 73727 kb/s, 60 fps, 60 tbr, 60 tbn (default)\n    Metadata:\n      handler_name    : VideoHandler\n      vendor_id       : [0][0][0][0]\n[out#0/mp4 @ 000002a90660a600] Codec AVOption b:a (set bitrate (in bits/s)) has not been used for any stream. The most likely reason is either wrong type (e.g. a video option with no video streams) or that it is a private option of some decoder which was not actually used for any stream.\nStream mapping:\n  Stream #0:0 -> #0:0 (h264 (native) -> h264 (libx264))\nPress [q] to stop, [?] for help\n[libx264 @ 000002a906f00280] using cpu capabilities: MMX2 SSE2Fast SSSE3 SSE4.2 AVX FMA3 BMI2 AVX2\n[libx264 @ 000002a906f00280] profile High, level 5.0, 4:2:0, 8-bit\n[libx264 @ 000002a906f00280] 264 - core 165 r3222 b35605a - H.264/MPEG-4 AVC codec - Copyleft 2003-2025 - http://www.videolan.org/x264.html - options: cabac=1 ref=5 deblock=1:0:0 analyse=0x3:0x113 me=hex subme=8 psy=1 psy_rd=1.00:0.00 mixed_ref=1 me_range=16 chroma_me=1 trellis=2 8x8dct=1 cqm=0 deadzone=21,11 fast_pskip=1 chroma_qp_offset=-2 threads=18 lookahead_threads=3 sliced_threads=0 nr=0 decimate=1 interlaced=0 bluray_compat=0 constrained_intra=0 bframes=3 b_pyramid=2 b_adapt=1 b_bias=0 direct=3 weightb=1 open_gop=0 weightp=2 keyint=250 keyint_min=25 scenecut=40 intra_refresh=0 rc_lookahead=50 rc=cbr mbtree=1 bitrate=8000 ratetol=1.0 qcomp=0.60 qpmin=0 qpmax=69 qpstep=4 vbv_maxrate=8000 vbv_bufsize=8000 nal_hrd=none filler=0 ip_ratio=1.40 aq=1:1.00\nOutput #0, mp4, to 'C:\\Users\\Peter\\Desktop\\stuff\\MIUN\\quantitative_research\\video_compression\\compressed_videos\\BVI-HD\\h264\\8\\PlasmaAveragePan_1920x1080_60fps_h264.mp4':\n  Metadata:\n    major_brand     : isom\n    minor_version   : 512\n    compatible_brands: isomiso2avc1mp41\n    encoder         : Lavf62.3.100\n  Stream #0:0(und): Video: h264 (avc1 / 0x31637661), yuv420p(tv, progressive), 1920x1080, q=2-31, 8000 kb/s, 60 fps, 15360 tbn (default)\n    Metadata:\n      encoder         : Lavc62.11.100 libx264\n      handler_name    : VideoHandler\n      vendor_id       : [0][0][0][0]\n    Side data:\n      cpb: bitrate max/min/avg: 8000000/0/8000000 buffer size: 8000000 vbv_delay: N/A\nframe=    0 fps=0.0 q=0.0 size=       0KiB time=N/A bitrate=N/A speed=N/A elapsed=0:00:00.52    \nframe=   19 fps= 17 q=25.0 size=       0KiB time=00:00:00.28 bitrate=   1.4kbits/s speed=0.257x elapsed=0:00:01.10    \nframe=   54 fps= 33 q=25.0 size=     768KiB time=00:00:00.86 bitrate=7259.8kbits/s speed=0.533x elapsed=0:00:01.62    \nframe=   92 fps= 43 q=25.0 size=    1280KiB time=00:00:01.43 bitrate=7315.9kbits/s speed=0.669x elapsed=0:00:02.14    \nframe=  123 fps= 46 q=26.0 size=    1792KiB time=00:00:01.95 bitrate=7528.4kbits/s speed=0.724x elapsed=0:00:02.69    \nframe=  166 fps= 51 q=26.0 size=    2560KiB time=00:00:02.68 bitrate=7815.6kbits/s speed=0.826x elapsed=0:00:03.25    \nframe=  208 fps= 55 q=25.0 size=    3072KiB time=00:00:03.43 bitrate=7330.0kbits/s speed=0.908x elapsed=0:00:03.78    \nframe=  253 fps= 59 q=24.0 size=    3840KiB time=00:00:04.18 bitrate=7519.8kbits/s speed=0.972x elapsed=0:00:04.30    \n[mp4 @ 000002a90660a700] Starting second pass: moving the moov atom to the beginning of the file\n[out#0/mp4 @ 000002a90660a600] video:4800KiB audio:0KiB subtitle:0KiB other streams:0KiB global headers:0KiB muxing overhead: 0.092019%\nframe=  300 fps= 63 q=-1.0 Lsize=    4804KiB time=00:00:04.96 bitrate=7924.5kbits/s speed=1.05x elapsed=0:00:04.73    \n[libx264 @ 000002a906f00280] frame I:3     Avg QP: 8.87  size: 31136\n[libx264 @ 000002a906f00280] frame P:75    Avg QP:19.90  size: 20497\n[libx264 @ 000002a906f00280] frame B:222   Avg QP:21.17  size: 14792\n[libx264 @ 000002a906f00280] consecutive B-frames:  1.0%  0.7%  1.0% 97.3%\n[libx264 @ 000002a906f00280] mb I  I16..4: 68.4% 31.1%  0.5%\n[libx264 @ 000002a906f00280] mb P  I16..4:  0.3% 12.0%  0.4%  P16..4:  3.5%  1.6%  0.4%  0.0%  0.0%    skip:81.7%\n[libx264 @ 000002a906f00280] mb B  I16..4:  0.3%  4.0%  0.1%  B16..8:  7.4%  4.1%  0.7%  direct: 1.1%  skip:82.3%  L0:47.2% L1:39.3% BI:13.5%\n[libx264 @ 000002a906f00280] 8x8 transform intra:84.3% inter:92.8%\n[libx264 @ 000002a906f00280] direct mvs  spatial:95.5% temporal:4.5%\n[libx264 @ 000002a906f00280] coded y,uvDC,uvAC intra: 57.6% 77.0% 70.8% inter: 5.1% 8.5% 4.7%\n[libx264 @ 000002a906f00280] i16 v,h,dc,p: 85%  8%  5%  2%\n[libx264 @ 000002a906f00280] i8 v,h,dc,ddl,ddr,vr,hd,vl,hu: 19% 13% 23%  5%  8%  8%  8%  8%  7%\n[libx264 @ 000002a906f00280] i4 v,h,dc,ddl,ddr,vr,hd,vl,hu: 14% 16%  9%  6% 15% 11% 16%  6%  7%\n[libx264 @ 000002a906f00280] i8c dc,h,v,p: 52% 17% 19% 12%\n[libx264 @ 000002a906f00280] Weighted P-Frames: Y:1.3% UV:1.3%\n[libx264 @ 000002a906f00280] ref P L0: 47.9%  3.3% 21.4% 14.7% 12.5%  0.2%\n[libx264 @ 000002a906f00280] ref B L0: 77.5% 14.4%  5.9%  2.2%\n[libx264 @ 000002a906f00280] ref B L1: 95.1%  4.9%\n[libx264 @ 000002a906f00280] kb/s:7863.21\n",
  "seconds": 4.911186695098877,
  "probe_out": {}
}